<svg id="Layer_1" data-name="Layer 1" xmlns="http://www.w3.org/2000/svg" viewBox="0 0 24 24"><path d="M19,0H5A5.006,5.006,0,0,0,0,5V19a5.006,5.006,0,0,0,5,5H16.343a4.968,4.968,0,0,0,3.535-1.465l2.658-2.656A4.968,4.968,0,0,0,24,16.343V5A5.006,5.006,0,0,0,19,0ZM2,19V5A3,3,0,0,1,5,2H19a3,3,0,0,1,3,3V15H18a3,3,0,0,0-3,3v4H5A3,3,0,0,1,2,19Zm16.464,2.121a3.02,3.02,0,0,1-1.464.8V18a1,1,0,0,1,1-1h3.922a2.978,2.978,0,0,1-.8,1.465ZM14,9.084v-2.1A1.991,1.991,0,0,1,16,5h0a2.022,2.022,0,0,1,1.772,1.078.626.626,0,1,1-1.11.58A.779.779,0,0,0,16,6.25.742.742,0,0,0,15.251,7V9.068A.742.742,0,0,0,16,9.819a.759.759,0,0,0,.75-.735V9H16.5a.5.5,0,0,1,0-1h.75a.75.75,0,0,1,.75.75v.334a2,2,0,0,1-2,1.984h0A1.991,1.991,0,0,1,14,9.084ZM8,5.65V9.006a2.069,2.069,0,0,1-2.079,2.063h0A2.109,2.109,0,0,1,4.072,9.9a.651.651,0,1,1,1.162-.587.818.818,0,0,0,.687.459A.771.771,0,0,0,6.7,8.989l0-3.34a.65.65,0,0,1,1.3,0ZM11.09,5H10A1,1,0,0,0,9,6v4.444a.625.625,0,1,0,1.25,0V9.223l.84,0A2.11,2.11,0,1,0,11.09,5Zm0,2.969-.832,0L10.252,6.25h.838a.86.86,0,1,1,0,1.719Z"/></svg>