<svg id="Layer_1" data-name="Layer 1" xmlns="http://www.w3.org/2000/svg" viewBox="0 0 24 24"><path d="M19,24H18a1,1,0,0,1,0-2h1a3,3,0,0,0,3-3V18a1,1,0,0,1,2,0v1A5.006,5.006,0,0,1,19,24ZM24,6V5a5.006,5.006,0,0,0-5-5H18a1,1,0,0,0,0,2h1a3,3,0,0,1,3,3V6a1,1,0,0,0,2,0ZM7,23a1,1,0,0,0-1-1H5a3,3,0,0,1-3-3V18a1,1,0,0,0-2,0v1a5.006,5.006,0,0,0,5,5H6A1,1,0,0,0,7,23ZM2,6V5A3,3,0,0,1,5,2H6A1,1,0,0,0,6,0H5A5.006,5.006,0,0,0,0,5V6A1,1,0,0,0,2,6Zm14,6a4,4,0,1,0-4,4A4,4,0,0,0,16,12Zm-2,0a2,2,0,1,1-2-2A2,2,0,0,1,14,12Z"/></svg>