<svg id="Outline" xmlns="http://www.w3.org/2000/svg" viewBox="0 0 24 24"><title>54 eps file</title><path d="M6.962,5.818a.625.625,0,0,0,0-1.25h-2.2a.625.625,0,0,0-.625.625v5.214a.625.625,0,0,0,.625.625h2.2a.625.625,0,0,0,0-1.25H5.391V8.425H6.8a.625.625,0,0,0,0-1.25H5.391V5.818Z"/><path d="M10.939,4.544H9.475a.628.628,0,0,0-.442.184h0c-.008.008-.011.02-.019.029a.61.61,0,0,0-.115.172.633.633,0,0,0-.036.179c0,.021-.012.04-.012.061v5.262a.625.625,0,0,0,1.25,0V8.768l.839,0a2.11,2.11,0,1,0,0-4.22Zm0,2.97-.832,0,0-1.724h.837a.86.86,0,1,1,0,1.72Z"/><path d="M19,0H5A5.006,5.006,0,0,0,0,5V19a5.006,5.006,0,0,0,5,5H16.343a4.968,4.968,0,0,0,3.536-1.464l2.656-2.658A4.968,4.968,0,0,0,24,16.343V5A5.006,5.006,0,0,0,19,0ZM2,19V5A3,3,0,0,1,5,2H19a3,3,0,0,1,3,3V15H18a3,3,0,0,0-3,3v4H5A3,3,0,0,1,2,19Zm16.465,2.122a2.975,2.975,0,0,1-1.465.8V18a1,1,0,0,1,1-1h3.925a3.016,3.016,0,0,1-.8,1.464Z"/><path d="M16.857,7.255c-.273-.093-.556-.144-.835-.217a1.254,1.254,0,0,1-.594-.3.589.589,0,0,1-.152-.618.6.6,0,0,1,.491-.328,1.487,1.487,0,0,1,.607.089,7.48,7.48,0,0,1,.819.309c.295.129.641.206.879-.074a.61.61,0,0,0,.032-.737,1.089,1.089,0,0,0-.407-.355,3.179,3.179,0,0,0-2.426-.331,1.815,1.815,0,0,0-1.026.826,1.719,1.719,0,0,0-.207.605,1.621,1.621,0,0,0,.234,1.1,1.931,1.931,0,0,0,.961.735c.409.168.817.331,1.232.483a1.3,1.3,0,0,1,.482.276.564.564,0,0,1,.15.579.723.723,0,0,1-.457.408,1.532,1.532,0,0,1-.974.035,2.668,2.668,0,0,1-.848-.5c-.026-.021-.111-.085-.127-.1a.6.6,0,0,0-.76.051.625.625,0,0,0-.043.883,3.133,3.133,0,0,0,2.3.985A2.138,2.138,0,0,0,18.366,9.4a1.767,1.767,0,0,0-.6-1.624A2.664,2.664,0,0,0,16.857,7.255Z"/></svg>