<svg id="Layer_1" data-name="Layer 1" xmlns="http://www.w3.org/2000/svg" viewBox="0 0 24 24"><path d="M22.942,6.837,20.76,4.654l.947-.947a1,1,0,1,0-1.414-1.414l-.947.947L17.163,1.058a3.7,3.7,0,0,0-5.105,0,3.609,3.609,0,0,0,0,5.106L14.24,8.346,8.346,14.24,6.163,12.058a3.7,3.7,0,0,0-5.105,0,3.609,3.609,0,0,0,0,5.106L3.24,19.346l-.947.947a1,1,0,1,0,1.414,1.414l.947-.947,2.183,2.182a3.609,3.609,0,0,0,5.105,0h0a3.608,3.608,0,0,0,0-5.105L9.76,15.655l5.9-5.895,2.182,2.182a3.609,3.609,0,0,0,5.105,0h0a3.608,3.608,0,0,0,0-5.105ZM11,20.39a1.6,1.6,0,0,1-.472,1.138,1.647,1.647,0,0,1-2.277,0L2.472,15.749a1.61,1.61,0,1,1,2.277-2.277l5.779,5.779A1.6,1.6,0,0,1,11,20.39Zm10.528-9.862a1.647,1.647,0,0,1-2.277,0L13.472,4.749a1.61,1.61,0,1,1,2.277-2.277l5.779,5.779a1.609,1.609,0,0,1,0,2.277Z"/></svg>