<svg id="Layer_1" data-name="Layer 1" xmlns="http://www.w3.org/2000/svg" viewBox="0 0 24 24"><path d="M11,12a1,1,0,0,1,0,2H8a1,1,0,0,1,0-2Zm6-3a1,1,0,0,0-1-1H8a1,1,0,0,0,0,2h8A1,1,0,0,0,17,9ZM8,6h8a1,1,0,0,0,0-2H8A1,1,0,0,0,8,6ZM20,19.444v3.833a.721.721,0,0,1-1.231.51L18,23.019l-.769.768A.721.721,0,0,1,16,23.277V19.444A3.987,3.987,0,0,1,18,12a3.939,3.939,0,0,1,1,.142V5a3,3,0,0,0-3-3H8A3,3,0,0,0,5,5V17a3,3,0,0,0,3,3h5a1,1,0,0,1,0,2H8a5.006,5.006,0,0,1-5-5V5A5.006,5.006,0,0,1,8,0h8a5.006,5.006,0,0,1,5,5v8.382a3.95,3.95,0,0,1-1,6.062ZM20,16a2,2,0,1,0-2,2A2,2,0,0,0,20,16Z"/></svg>