<svg id="Layer_1" data-name="Layer 1" xmlns="http://www.w3.org/2000/svg" viewBox="0 0 24 24"><path d="M16,6a1,1,0,0,1,0,2H8A1,1,0,0,1,8,6Zm7.707,17.707a1,1,0,0,1-1.414,0L19.886,21.3A4.457,4.457,0,0,1,17.5,22,4.5,4.5,0,1,1,22,17.5a4.457,4.457,0,0,1-.7,2.386l2.407,2.407A1,1,0,0,1,23.707,23.707ZM17.5,20A2.5,2.5,0,1,0,15,17.5,2.5,2.5,0,0,0,17.5,20ZM13,22H7a3,3,0,0,1-3-3V5A3,3,0,0,1,7,2H19a1,1,0,0,1,1,1v8a1,1,0,0,0,2,0V3a3,3,0,0,0-3-3H7A5.006,5.006,0,0,0,2,5V19a5.006,5.006,0,0,0,5,5h6a1,1,0,0,0,0-2Z"/></svg>