<svg id="Layer_1" data-name="Layer 1" xmlns="http://www.w3.org/2000/svg" viewBox="0 0 24 24"><path d="M22.827,1.174A3.968,3.968,0,0,0,19.04.119,31.29,31.29,0,0,0,5.256,7.869,7.757,7.757,0,0,0,3.009,13.7a7.646,7.646,0,0,0,1.569,4.3L.293,22.293a1,1,0,1,0,1.414,1.414l4.284-4.284A7.446,7.446,0,0,0,10.589,21a8.394,8.394,0,0,0,5.9-2.545c4.4-4.4,6.883-11.446,7.394-13.525A3.931,3.931,0,0,0,22.827,1.174ZM5.007,13.608A5.756,5.756,0,0,1,6.672,9.281C7.1,8.856,7.545,8.457,8,8.067v6.519l-1.99,1.99A5.671,5.671,0,0,1,5.007,13.608Zm10.038,3.459a5.908,5.908,0,0,1-7.618.92l2.279-2.279,0,0L12.414,13h5.762A25.778,25.778,0,0,1,15.045,17.067Zm6.9-12.62A29.628,29.628,0,0,1,19.345,11H14.414l3.293-3.293a1,1,0,1,0-1.414-1.414l-5,5,0,0L10,12.586V6.512a30.354,30.354,0,0,1,9.522-4.451A2.017,2.017,0,0,1,20.006,2a1.99,1.99,0,0,1,1.409.589A1.925,1.925,0,0,1,21.941,4.447Z"/></svg>