<svg id="Layer_1" data-name="Layer 1" xmlns="http://www.w3.org/2000/svg" viewBox="0 0 24 24"><path d="M17,0a1,1,0,0,0-1,1c0,2.949-2.583,4-5,4H4A4,4,0,0,0,0,9v2a3.979,3.979,0,0,0,1.514,3.109l3.572,7.972A3.233,3.233,0,0,0,8.039,24a2.982,2.982,0,0,0,2.72-4.2L8.559,15H11c2.417,0,5,1.051,5,4a1,1,0,0,0,2,0V1A1,1,0,0,0,17,0ZM8.937,20.619A.983.983,0,0,1,8.039,22a1.232,1.232,0,0,1-1.126-.734L4.105,15H6.359ZM16,14.6A7.723,7.723,0,0,0,11,13H4a2,2,0,0,1-2-2V9A2,2,0,0,1,4,7h7a7.723,7.723,0,0,0,5-1.595Zm7.9.852a1,1,0,0,1-1.342.448l-2-1a1,1,0,0,1,.894-1.79l2,1A1,1,0,0,1,23.9,15.447Zm-3.79-9a1,1,0,0,1,.448-1.342l2-1a1,1,0,1,1,.894,1.79l-2,1a1,1,0,0,1-1.342-.448ZM20,10a1,1,0,0,1,1-1h2a1,1,0,0,1,0,2H21A1,1,0,0,1,20,10Z"/></svg>