<svg id="Layer_1" data-name="Layer 1" xmlns="http://www.w3.org/2000/svg" viewBox="0 0 24 24"><path d="M23.707,15.293a1,1,0,0,0-1.414,0L19.5,18.086l-2.793-2.793a1,1,0,0,0-1.414,1.414L18.086,19.5l-2.793,2.793a1,1,0,1,0,1.414,1.414L19.5,20.914l2.793,2.793a1,1,0,0,0,1.414-1.414L20.914,19.5l2.793-2.793A1,1,0,0,0,23.707,15.293Z"/><path d="M12,22A10,10,0,1,1,22,12a1,1,0,0,0,2,0A12,12,0,1,0,12,24a1,1,0,0,0,0-2Z"/><path d="M12,6a1,1,0,0,0-1,1v4.586L8.293,14.293a1,1,0,1,0,1.414,1.414l3-3A1,1,0,0,0,13,12V7A1,1,0,0,0,12,6Z"/></svg>