<svg id="Outline" xmlns="http://www.w3.org/2000/svg" viewBox="0 0 24 24"><title>53 psd file</title><path d="M14.957,10.355a.625.625,0,0,0,.625.623h0s1.072,0,1.486-.012C18.6,10.94,19.7,9.608,19.7,7.8c0-1.9-1.08-3.178-2.686-3.178H15.571a.627.627,0,0,0-.625.627v0h0V10.27a.482.482,0,0,0,.011.052Zm2.061-4.483c1.059,0,1.436,1,1.436,1.928s-.434,1.9-1.405,1.916c-.2,0-.538.007-.844.009L16.2,5.872Z"/><path d="M12.122,7.255c-.273-.093-.556-.144-.835-.217a1.254,1.254,0,0,1-.594-.3.589.589,0,0,1-.152-.618.6.6,0,0,1,.491-.328,1.487,1.487,0,0,1,.607.089,7.574,7.574,0,0,1,.82.309c.294.129.641.206.878-.074a.608.608,0,0,0,.032-.737,1.082,1.082,0,0,0-.407-.355,3.179,3.179,0,0,0-2.426-.331,1.815,1.815,0,0,0-1.026.826,1.719,1.719,0,0,0-.207.605,1.621,1.621,0,0,0,.234,1.1,1.931,1.931,0,0,0,.961.735c.409.168.818.331,1.233.483a1.316,1.316,0,0,1,.482.276.566.566,0,0,1,.149.579.723.723,0,0,1-.457.408,1.532,1.532,0,0,1-.974.035,2.668,2.668,0,0,1-.848-.5c-.026-.021-.111-.085-.127-.1a.6.6,0,0,0-.76.051.625.625,0,0,0-.043.883,3.133,3.133,0,0,0,2.3.985A2.138,2.138,0,0,0,13.631,9.4a1.767,1.767,0,0,0-.6-1.624A2.664,2.664,0,0,0,12.122,7.255Z"/><path d="M6.205,4.544H4.74a.622.622,0,0,0-.241.049.629.629,0,0,0-.2.135h0l0,.007a.621.621,0,0,0-.129.194.656.656,0,0,0-.036.176c0,.023-.013.042-.013.064v5.262a.625.625,0,0,0,1.25,0V8.768l.84,0a2.11,2.11,0,1,0,0-4.22Zm0,2.97-.832,0L5.367,5.794h.838a.86.86,0,1,1,0,1.72Z"/><path d="M19,0H5A5.006,5.006,0,0,0,0,5V19a5.006,5.006,0,0,0,5,5H16.343a4.968,4.968,0,0,0,3.536-1.464l2.656-2.658A4.968,4.968,0,0,0,24,16.343V5A5.006,5.006,0,0,0,19,0ZM2,19V5A3,3,0,0,1,5,2H19a3,3,0,0,1,3,3V15H18a3,3,0,0,0-3,3v4H5A3,3,0,0,1,2,19Zm16.465,2.122a2.975,2.975,0,0,1-1.465.8V18a1,1,0,0,1,1-1h3.925a3.016,3.016,0,0,1-.8,1.464Z"/></svg>