<svg id="Layer_1" data-name="Layer 1" xmlns="http://www.w3.org/2000/svg" viewBox="0 0 24 24"><path d="M20.485,3.515a11.994,11.994,0,1,0,0,16.97A12.013,12.013,0,0,0,20.485,3.515Zm1.449,7.417a7.964,7.964,0,0,1-8.865-8.866,9.961,9.961,0,0,1,8.865,8.866ZM2.066,13.068a7.964,7.964,0,0,1,8.865,8.866,9.961,9.961,0,0,1-8.865-8.866Zm17.005,6a9.947,9.947,0,0,1-6.127,2.879,9.971,9.971,0,0,0-10.9-10.894A9.979,9.979,0,0,1,11.056,2.05,9.986,9.986,0,0,0,21,13c.317,0,.635-.016.953-.046A9.951,9.951,0,0,1,19.071,19.071Z"/></svg>