<svg id="Layer_1" data-name="Layer 1" xmlns="http://www.w3.org/2000/svg" viewBox="0 0 24 24"><path d="M22.327,18.422C23.055,19.456,24,20.651,24,21.5a2.5,2.5,0,0,1-5,0c0-.775.961-2.008,1.692-3.069A1,1,0,0,1,22.327,18.422Zm-.877-4.558-8.672,8.672a5.006,5.006,0,0,1-7.071,0L1.465,18.293a5,5,0,0,1,0-7.071l5.709-5.71L4.318,2.622A1,1,0,0,1,5.74,1.216L8.588,4.1,10.136,2.55l-.843-.843A1,1,0,0,1,10.707.293l13,13a1,1,0,1,1-1.414,1.414ZM20.036,12.45,11.55,3.964,9.993,5.522,14.711,10.3A1,1,0,1,1,13.289,11.7L8.58,6.935l-5.7,5.7a3,3,0,0,0,0,4.243l4.242,4.243a3.005,3.005,0,0,0,4.243,0Z"/></svg>