<svg id="Layer_1" data-name="Layer 1" xmlns="http://www.w3.org/2000/svg" viewBox="0 0 24 24"><path d="M24,18v1a5.006,5.006,0,0,1-5,5H18a1,1,0,0,1,0-2h1a3,3,0,0,0,3-3V18a1,1,0,0,1,2,0ZM19,0H18a1,1,0,0,0,0,2h1a3,3,0,0,1,3,3V6a1,1,0,0,0,2,0V5A5.006,5.006,0,0,0,19,0Zm4,9a1,1,0,0,0-1,1v4a1,1,0,0,0,2,0V10A1,1,0,0,0,23,9ZM6,22H5a3,3,0,0,1-3-3V18a1,1,0,0,0-2,0v1a5.006,5.006,0,0,0,5,5H6a1,1,0,0,0,0-2ZM6,0H5A5.006,5.006,0,0,0,0,5V6A1,1,0,0,0,2,6V5A3,3,0,0,1,5,2H6A1,1,0,0,0,6,0ZM1,15a1,1,0,0,0,1-1V10a1,1,0,0,0-2,0v4A1,1,0,0,0,1,15ZM10,2h3.932a1,1,0,0,0,0-2H10a1,1,0,0,0,0,2Zm4,20H10a1,1,0,0,0,0,2h4a1,1,0,0,0,0-2Z"/></svg>