<svg id="Layer_1" data-name="Layer 1" xmlns="http://www.w3.org/2000/svg" viewBox="0 0 24 24"><path d="M18,24H6a5.006,5.006,0,0,1-5-5V5A5.006,5.006,0,0,1,6,0H18a5.006,5.006,0,0,1,5,5V19A5.006,5.006,0,0,1,18,24ZM6,2A3,3,0,0,0,3,5V19a3,3,0,0,0,3,3H18a3,3,0,0,0,3-3V5a3,3,0,0,0-3-3Zm10,8H8A3,3,0,0,1,8,4h8a3,3,0,0,1,0,6ZM8,6A1,1,0,0,0,8,8h8a1,1,0,0,0,0-2ZM6,13a1,1,0,1,0,1,1A1,1,0,0,0,6,13Zm4,0a1,1,0,1,0,1,1A1,1,0,0,0,10,13Zm4,0a1,1,0,1,0,1,1A1,1,0,0,0,14,13ZM6,17a1,1,0,1,0,1,1A1,1,0,0,0,6,17Zm4,0a1,1,0,1,0,1,1A1,1,0,0,0,10,17Zm8-4a1,1,0,1,0,1,1A1,1,0,0,0,18,13Zm1,5a1,1,0,0,0-1-1H14a1,1,0,0,0,0,2h4A1,1,0,0,0,19,18Z"/></svg>