<svg id="Layer_1" data-name="Layer 1" xmlns="http://www.w3.org/2000/svg" viewBox="0 0 24 24"><path d="M23.707,5.293l-5-5a1,1,0,0,0-1.414,1.414L19.086,3.5,17.6,4.983a5,5,0,0,0-6.481.481L5.05,11.536A6.954,6.954,0,0,0,3,16.485v3.1L.293,22.293a1,1,0,1,0,1.414,1.414L4.414,21h3.1a6.954,6.954,0,0,0,4.949-2.05l6.072-6.072A4.993,4.993,0,0,0,19.017,6.4L20.5,4.914l1.793,1.793a1,1,0,0,0,1.414-1.414Zm-6.585,6.171L11.05,17.536A4.967,4.967,0,0,1,7.515,19H5V16.485a5.11,5.11,0,0,1,.095-.976l1.2,1.2a1,1,0,1,0,1.414-1.414L5.968,13.554a4.989,4.989,0,0,1,.5-.6L7.5,11.914l1.793,1.793a1,1,0,0,0,1.414-1.414L8.914,10.5,10.5,8.914l1.793,1.793a1,1,0,0,0,1.414-1.414L11.914,7.5l.622-.622a3.073,3.073,0,0,1,4.242,0l.344.344a3,3,0,0,1,0,4.242Z"/></svg>