<svg id="Layer_1" data-name="Layer 1" xmlns="http://www.w3.org/2000/svg" viewBox="0 0 24 24"><path d="M12,15a1,1,0,0,1-1-1,3.953,3.953,0,0,1,1.963-3.195,1.994,1.994,0,0,0,1-2.124,2.024,2.024,0,0,0-1.6-1.6A2,2,0,0,0,10,9.052a1,1,0,0,1-2,0A4,4,0,0,1,9.429,5.987a4,4,0,1,1,4.5,6.57A1.987,1.987,0,0,0,13,14,1,1,0,0,1,12,15Zm.793,8.76C14.953,22.892,22,19.479,22,12.043V6.872a4.993,4.993,0,0,0-3.426-4.746L12.315.051a.985.985,0,0,0-.63,0L5.426,2.126A4.993,4.993,0,0,0,2,6.872v5.171c0,6.562,7.005,10.576,9.153,11.65A2.331,2.331,0,0,0,12,24,2.242,2.242,0,0,0,12.793,23.76ZM17.944,4.024A3,3,0,0,1,20,6.872v5.171c0,6.183-6.087,9.111-7.953,9.861h0C10.159,20.96,4,17.459,4,12.043V6.872A3,3,0,0,1,6.056,4.024L12,2.054ZM12,17a1,1,0,1,0,1,1A1,1,0,0,0,12,17Z"/></svg>