<svg id="Outline" xmlns="http://www.w3.org/2000/svg" viewBox="0 0 24 24"><title>193 cloud upload</title><path d="M18.4,7.376a1.129,1.129,0,0,1-.768-.754h0a8,8,0,1,0-15.1,5.238A1.044,1.044,0,0,1,2.222,13.1,5.5,5.5,0,0,0,.055,18.3,5.624,5.624,0,0,0,5.683,23H11a1,1,0,0,0,1-1h0a1,1,0,0,0-1-1H5.683a3.615,3.615,0,0,1-3.647-2.981A3.458,3.458,0,0,1,3.412,14.7,3.022,3.022,0,0,0,4.4,11.138a6.119,6.119,0,0,1-.074-4.126A5.962,5.962,0,0,1,9.215,3.046,6.314,6.314,0,0,1,9.987,3a5.985,5.985,0,0,1,5.757,4.281,2.977,2.977,0,0,0,2.01,1.99,5.935,5.935,0,0,1,.779,11.092.977.977,0,0,0-.531.888h0a.989.989,0,0,0,1.388.916c4.135-1.988,6.381-7.216,2.88-12.266A6.941,6.941,0,0,0,18.4,7.376Z"/><path d="M18.709,15.291l-3-3a1,1,0,0,0-1.414,0l-3,3a1,1,0,0,0,1.414,1.415L14,15.413V23a1,1,0,0,0,2,0V15.413L17.3,16.706a1,1,0,1,0,1.414-1.415Z"/></svg>