<svg id="Outline" xmlns="http://www.w3.org/2000/svg" viewBox="0 0 24 24"><title>66 flame</title><path d="M16.63,2.9c-.787-.667-1.612-1.368-2.452-2.132A2.952,2.952,0,0,0,11.8.026a2.845,2.845,0,0,0-2.032,1.3A20.372,20.372,0,0,0,7.276,7.775,6.121,6.121,0,0,1,6.8,6.96a2,2,0,0,0-3.3-.473A9.066,9.066,0,0,0,.914,12.908,10.98,10.98,0,0,0,9.136,23.64a11.651,11.651,0,0,0,2.776.352c.03,0,.059.008.089.008.131,0,.26-.011.389-.02a11.058,11.058,0,0,0,10.7-11.066C23.086,8.384,20.094,5.844,16.63,2.9Zm-4.4,19.074c-.114,0-.228.012-.343.011a3.689,3.689,0,0,1-2.035-.806,3.663,3.663,0,0,1-1.582-2.557C8.1,17,9.1,14.879,11.143,12.483h0A1.121,1.121,0,0,1,12,12.091h0a1.089,1.089,0,0,1,.843.39c1.872,2.222,2.9,4.272,2.9,5.773A3.74,3.74,0,0,1,12.233,21.976Zm5.346-1.891c-.059.046-.124.083-.184.127a5.706,5.706,0,0,0,.351-1.958c0-2.527-1.835-5.235-3.373-7.062a3.1,3.1,0,0,0-2.366-1.1H12a3.117,3.117,0,0,0-2.376,1.093h0c-2.445,2.864-3.568,5.437-3.338,7.648a5.174,5.174,0,0,0,.389,1.49,9.094,9.094,0,0,1-3.758-7.413A7.062,7.062,0,0,1,5,7.828a8.167,8.167,0,0,0,.827,1.361,1.847,1.847,0,0,0,1.906.7A1.9,1.9,0,0,0,9.184,8.415a18.654,18.654,0,0,1,2.269-6.022.842.842,0,0,1,.609-.384.953.953,0,0,1,.77.241c.858.78,1.7,1.5,2.5,2.177,3.338,2.835,5.751,4.883,5.751,8.487A9.033,9.033,0,0,1,17.579,20.085Z"/></svg>