<svg id="Outline" xmlns="http://www.w3.org/2000/svg" viewBox="0 0 24 24"><title>37 video camera</title><path d="M22.9,8.955a1.987,1.987,0,0,0-2.092.184L18.975,10.5A5.007,5.007,0,0,0,14,6h-.085L9.793,1.879A2.976,2.976,0,0,0,7.672,1H1A1,1,0,0,0,1,3H7.672a1.006,1.006,0,0,1,.707.293L11.086,6H5a5.006,5.006,0,0,0-5,5v8a5.006,5.006,0,0,0,5,5h9a5.007,5.007,0,0,0,4.975-4.5l1.83,1.364a2,2,0,0,0,3.2-1.6V10.743A1.988,1.988,0,0,0,22.9,8.955ZM17,19a3,3,0,0,1-3,3H5a3,3,0,0,1-3-3V11A3,3,0,0,1,5,8h8.431q.036,0,.072,0c.025,0,.049,0,.073,0H14a3,3,0,0,1,3,3Zm5,.257-3-2.236V12.979l3-2.236Z"/></svg>