<svg id="Layer_1" data-name="Layer 1" xmlns="http://www.w3.org/2000/svg" viewBox="0 0 24 24"><path d="M20.506,20.454a11.975,11.975,0,0,0,0-16.908c-.009-.01-.011-.022-.021-.031s-.021-.012-.031-.021a11.975,11.975,0,0,0-16.907,0c-.01.009-.023.012-.032.022s-.013.022-.022.032a11.975,11.975,0,0,0,0,16.906c.009.01.012.023.022.032s.022.013.032.022a11.975,11.975,0,0,0,16.907,0c.01-.009.022-.011.031-.021S20.5,20.464,20.506,20.454Zm-18.449-7.4a9.927,9.927,0,0,1,5.275,2.2l-3.07,3.07A9.951,9.951,0,0,1,2.057,13.058Zm2.2-7.382L10.586,12,8.749,13.837a11.921,11.921,0,0,0-6.7-2.784A9.956,9.956,0,0,1,4.262,5.676Zm17.681,5.266a9.935,9.935,0,0,1-5.275-2.2l3.07-3.07A9.951,9.951,0,0,1,21.943,10.942Zm-6.689-3.61a9.927,9.927,0,0,1-2.2-5.275,9.951,9.951,0,0,1,5.266,2.2ZM13.836,8.75,12,10.586,5.676,4.262a9.956,9.956,0,0,1,5.377-2.214A11.933,11.933,0,0,0,13.836,8.75Zm-5.09,7.918a9.927,9.927,0,0,1,2.2,5.275,9.951,9.951,0,0,1-5.266-2.205Zm1.417-1.417L12,13.414l6.324,6.324a9.948,9.948,0,0,1-5.377,2.214A11.921,11.921,0,0,0,10.163,15.251ZM13.414,12l1.836-1.836a11.933,11.933,0,0,0,6.7,2.783,9.956,9.956,0,0,1-2.214,5.377Z"/></svg>