<svg id="Layer_1" data-name="Layer 1" xmlns="http://www.w3.org/2000/svg" viewBox="0 0 24 24"><path d="M19,1H5A5.006,5.006,0,0,0,0,6V18a5.006,5.006,0,0,0,5,5H19a5.006,5.006,0,0,0,5-5V6A5.006,5.006,0,0,0,19,1ZM5,3H19a3,3,0,0,1,3,3V7H2V6A3,3,0,0,1,5,3ZM19,21H5a3,3,0,0,1-3-3V9H22v9A3,3,0,0,1,19,21Zm0-8a1,1,0,0,1-1,1H6a1,1,0,0,1,0-2H18A1,1,0,0,1,19,13Zm-4,4a1,1,0,0,1-1,1H6a1,1,0,0,1,0-2h8A1,1,0,0,1,15,17ZM3,5A1,1,0,1,1,4,6,1,1,0,0,1,3,5ZM6,5A1,1,0,1,1,7,6,1,1,0,0,1,6,5ZM9,5a1,1,0,1,1,1,1A1,1,0,0,1,9,5Z"/></svg>