<svg id="Layer_1" data-name="Layer 1" xmlns="http://www.w3.org/2000/svg" viewBox="0 0 24 24"><path d="M10,10a3,3,0,0,0,0,6h4a3,3,0,0,0,0-6Zm5,3a1,1,0,0,1-1,1H10a1,1,0,0,1,0-2h4A1,1,0,0,1,15,13Zm2,6a1,1,0,0,1-1,1H8a1,1,0,0,1,0-2h8A1,1,0,0,1,17,19ZM19.536,3.121,17.878,1.465A4.968,4.968,0,0,0,14.343,0H8A5.006,5.006,0,0,0,3,5V19a5.006,5.006,0,0,0,5,5h8a5.006,5.006,0,0,0,5-5V6.657A4.968,4.968,0,0,0,19.536,3.121ZM18.122,4.535A3.1,3.1,0,0,1,18.5,5H16V2.5a2.932,2.932,0,0,1,.464.377ZM19,19a3,3,0,0,1-3,3H8a3,3,0,0,1-3-3V5A3,3,0,0,1,8,2h6V5a2,2,0,0,0,2,2h3Z"/></svg>