<svg id="Layer_1" data-name="Layer 1" xmlns="http://www.w3.org/2000/svg" viewBox="0 0 24 24"><path d="M10,8a2,2,0,1,1-2,2A2,2,0,0,1,10,8Zm14,2A14.27,14.27,0,0,1,12.516,23.952a2.95,2.95,0,0,1-2.431-.646A3.013,3.013,0,0,1,9,20.99V19.949A10,10,0,1,1,18.382,4.555,1,1,0,1,1,16.7,5.646a8,8,0,1,0,0,8.708,1,1,0,1,1,1.677,1.091A9.959,9.959,0,0,1,11,19.937V20.99a1.016,1.016,0,0,0,.367.781.948.948,0,0,0,.791.213,12.192,12.192,0,0,0,9.47-9.053A2.955,2.955,0,0,1,21,13a3,3,0,1,1,3-3Zm-2,0a1,1,0,1,0-1,1A1,1,0,0,0,22,10Z"/></svg>