<svg id="Layer_1" data-name="Layer 1" xmlns="http://www.w3.org/2000/svg" viewBox="0 0 24 24"><path d="M17,24H7.005A4.02,4.02,0,0,1,3.96,22.6a3.945,3.945,0,0,1-.916-3.158A12.517,12.517,0,0,1,7.445,12a12.517,12.517,0,0,1-4.4-7.444A3.945,3.945,0,0,1,3.96,1.4,4.02,4.02,0,0,1,7.005,0H17a4.017,4.017,0,0,1,3.044,1.4,3.943,3.943,0,0,1,.918,3.155A12.556,12.556,0,0,1,16.551,12a12.557,12.557,0,0,1,4.406,7.448,3.944,3.944,0,0,1-.918,3.156A4.017,4.017,0,0,1,17,24ZM17,2H7.005a2.014,2.014,0,0,0-1.528.7,1.917,1.917,0,0,0-.455,1.556c.375,2.5,1.922,4.84,4.6,6.957a1,1,0,0,1,0,1.568C6.944,14.9,5.4,17.242,5.022,19.741A1.917,1.917,0,0,0,5.477,21.3a2.014,2.014,0,0,0,1.528.7H17a2.014,2.014,0,0,0,1.528-.7,1.917,1.917,0,0,0,.456-1.554c-.373-2.487-1.92-4.829-4.6-6.962a1,1,0,0,1,0-1.564c2.681-2.133,4.228-4.475,4.6-6.963A1.916,1.916,0,0,0,18.523,2.7,2.014,2.014,0,0,0,17,2Z"/></svg>