<svg id="Layer_1" data-name="Layer 1" xmlns="http://www.w3.org/2000/svg" viewBox="0 0 24 24"><path d="M15.563,14.272l.731-2.253a2.492,2.492,0,0,0-.908-2.795L13.469,7.832a2.491,2.491,0,0,0-2.938,0h0L8.614,9.224a2.493,2.493,0,0,0-.908,2.8l.732,2.253A2.494,2.494,0,0,0,10.815,16h2.37A2.5,2.5,0,0,0,15.563,14.272Zm-5.223-.618L9.608,11.4a.5.5,0,0,1,.182-.56L11.706,9.45a.5.5,0,0,1,.588,0l1.917,1.392a.5.5,0,0,1,.181.559l-.731,2.253a.5.5,0,0,1-.476.346h-2.37A.5.5,0,0,1,10.34,13.654ZM23.9,13.505a11.814,11.814,0,0,0-3.424-10L20.455,3.5a11.976,11.976,0,0,0-16.916,0l0,0A11.964,11.964,0,0,0,0,12a12.125,12.125,0,0,0,.105,1.509c.005.026.006.051.012.076a11.887,11.887,0,0,0,1.142,3.733.814.814,0,0,0,.057.119A12.022,12.022,0,0,0,9.91,23.806a1.02,1.02,0,0,0,.173.027h0a11.9,11.9,0,0,0,13.8-10.246C23.889,13.56,23.891,13.533,23.9,13.505ZM19.452,8.838l.776-2.509a9.94,9.94,0,0,1,1.745,5.131L19.831,9.951A1,1,0,0,1,19.452,8.838Zm-4.86-6.485-2,1.456a1,1,0,0,1-1.176,0l-2-1.456a9.693,9.693,0,0,1,5.184,0ZM4.548,8.838a1,1,0,0,1-.379,1.113L2.027,11.46A9.937,9.937,0,0,1,3.772,6.33Zm-.541,9.146,2.747.009a1,1,0,0,1,.95.694l.864,2.693A10.032,10.032,0,0,1,4.007,17.984Zm6.836,3.943L9.608,18.076A2.992,2.992,0,0,0,6.76,15.993l-3.929-.012a9.914,9.914,0,0,1-.659-2.176l3.149-2.219A2.992,2.992,0,0,0,6.459,8.248L5.324,4.576A9.992,9.992,0,0,1,7.208,3.227l3.028,2.2a2.993,2.993,0,0,0,3.528,0l3.028-2.2a10.024,10.024,0,0,1,1.884,1.349L17.541,8.248a2.992,2.992,0,0,0,1.138,3.338l3.149,2.219a9.9,9.9,0,0,1-.659,2.175l-3.93.013a2.992,2.992,0,0,0-2.847,2.084l-1.235,3.85a9.205,9.205,0,0,1-2.314,0Zm4.59-.547.863-2.693a1,1,0,0,1,.949-.694l2.748-.009A10.024,10.024,0,0,1,15.433,21.38Z"/></svg>