<svg id="Layer_1" data-name="Layer 1" xmlns="http://www.w3.org/2000/svg" viewBox="0 0 24 24"><path d="M9,9a1,1,0,0,1,1-1h1V7a1,1,0,0,1,2,0V8h1a1,1,0,0,1,0,2H13v1a1,1,0,0,1-2,0V10H10A1,1,0,0,1,9,9Zm7,5H8a1,1,0,0,0,0,2h8a1,1,0,0,0,0-2Zm-4,4H8a1,1,0,0,0,0,2h4a1,1,0,0,0,0-2ZM21,7V19a5.006,5.006,0,0,1-5,5H8a5.006,5.006,0,0,1-5-5V7A5.006,5.006,0,0,1,8,2h.171A3.006,3.006,0,0,1,11,0h2a3.006,3.006,0,0,1,2.829,2H16A5.006,5.006,0,0,1,21,7ZM19,7a3,3,0,0,0-3-3H15a1,1,0,0,1-1-1,1,1,0,0,0-1-1H11a1,1,0,0,0-1,1A1,1,0,0,1,9,4H8A3,3,0,0,0,5,7V19a3,3,0,0,0,3,3h8a3,3,0,0,0,3-3Z"/></svg>