<?xml version="1.0" encoding="utf-8"?>
<!-- Generator: Adobe Illustrator 25.0.1, SVG Export Plug-In . SVG Version: 6.00 Build 0)  -->
<svg version="1.1" id="Outline" xmlns="http://www.w3.org/2000/svg" xmlns:xlink="http://www.w3.org/1999/xlink" x="0px" y="0px"
	 viewBox="0 0 24 24" style="enable-background:new 0 0 24 24;" xml:space="preserve">
<circle cx="5.5" cy="15.5" r="1.5"/>
<path d="M19,3H5C2.2,3,0,5.2,0,8v8c0,2.8,2.2,5,5,5h14c2.8,0,5-2.2,5-5V8C24,5.2,21.8,3,19,3z M5,5h14c1.7,0,3,1.3,3,3H2
	C2,6.3,3.3,5,5,5z M19,19H5c-1.7,0-3-1.3-3-3v-6h20v6C22,17.7,20.7,19,19,19z"/>
</svg>
