<svg id="Layer_1" data-name="Layer 1" xmlns="http://www.w3.org/2000/svg" viewBox="0 0 24 24"><path d="M20,0H18.243a3.975,3.975,0,0,0-2.829,1.172L12.172,4.414A4.022,4.022,0,0,0,11,7.242v3.463c-3.266,2.415-7.581,5.633-8.121,6.174a2.993,2.993,0,0,0-.577,3.4L.293,22.293a1,1,0,0,0,0,1.414h0a1,1,0,0,0,1.414,0L3.714,21.7a2.965,2.965,0,0,0,3.407-.579C7.662,20.58,10.88,16.266,13.3,13h3.462a3.975,3.975,0,0,0,2.829-1.172l3.242-3.242A4.022,4.022,0,0,0,24,5.758V4A4,4,0,0,0,20,0ZM5.707,19.707a1.021,1.021,0,0,1-1.414,0,1,1,0,0,1,0-1.414c.339-.336,3-2.343,5.948-4.534C8.049,16.706,6.042,19.369,5.707,19.707ZM22,5.758a2.011,2.011,0,0,1-.586,1.414l-3.242,3.242A1.99,1.99,0,0,1,16.757,11H14.771l.991-1.348,3.945-3.945a1,1,0,1,0-1.414-1.414L14.349,8.237,13,9.229V7.242a2.011,2.011,0,0,1,.586-1.414l3.242-3.242A1.99,1.99,0,0,1,18.243,2H20a2,2,0,0,1,2,2Z"/></svg>