<svg id="Layer_1" data-name="Layer 1" xmlns="http://www.w3.org/2000/svg" viewBox="0 0 24 24"><path d="M18,9.064A3.049,3.049,0,0,0,17.1,6.9a3.139,3.139,0,0,0-4.334,0h0L.9,18.769A3.064,3.064,0,0,0,5.23,23.1L17.1,11.231A3.047,3.047,0,0,0,18,9.064ZM3.816,21.688a1.087,1.087,0,0,1-1.5,0,1.062,1.062,0,0,1,0-1.5l7.769-7.77,1.505,1.505ZM15.688,9.816,13,12.505,11.5,11l2.689-2.688h0a1.063,1.063,0,1,1,1.5,1.5ZM4.863,2.855l1.55-.442L6.855.863a1.191,1.191,0,0,1,2.29,0l.442,1.55,1.55.442a1.191,1.191,0,0,1,0,2.29l-1.55.442-.442,1.55a1.191,1.191,0,0,1-2.29,0l-.442-1.55-1.55-.442A1.191,1.191,0,0,1,4.863,2.855Zm18.274,14.29-1.55.442-.442,1.55a1.191,1.191,0,0,1-2.29,0l-.442-1.55-1.55-.442a1.191,1.191,0,0,1,0-2.29l1.55-.442.442-1.55a1.191,1.191,0,0,1,2.29,0l.442,1.55,1.55.442A1.191,1.191,0,0,1,23.137,17.145ZM17.755,2.5l1.356-.387L19.5.755a1.042,1.042,0,0,1,2,0l.387,1.356,1.356.387a1.042,1.042,0,0,1,0,2l-1.356.387L21.5,6.244a1.042,1.042,0,0,1-2,0l-.387-1.355L17.755,4.5A1.042,1.042,0,0,1,17.755,2.5Z"/></svg>