<svg id="Layer_1" data-name="Layer 1" xmlns="http://www.w3.org/2000/svg" viewBox="0 0 24 24"><path d="M16,15a1,1,0,0,1-1,1H13v2a1,1,0,0,1-2,0V16H9a1,1,0,0,1,0-2h2V12a1,1,0,0,1,2,0v2h2A1,1,0,0,1,16,15Zm8-7V18a5.006,5.006,0,0,1-5,5H5a5.006,5.006,0,0,1-5-5V6A5.006,5.006,0,0,1,5,1H7.528a3.014,3.014,0,0,1,1.341.316L12.025,2.9a1.016,1.016,0,0,0,.447.1H19A5.006,5.006,0,0,1,24,8ZM2,6V7H21.816A3,3,0,0,0,19,5H12.472a3.014,3.014,0,0,1-1.341-.316L7.975,3.105A1.016,1.016,0,0,0,7.528,3H5A3,3,0,0,0,2,6ZM22,18V9H2v9a3,3,0,0,0,3,3H19A3,3,0,0,0,22,18Z"/></svg>