<svg id="Layer_1" data-name="Layer 1" xmlns="http://www.w3.org/2000/svg" viewBox="0 0 24 24"><path d="M13,1V3a1,1,0,0,1-2,0V1a1,1,0,0,1,2,0ZM12,20a1,1,0,0,0-1,1v2a1,1,0,0,0,2,0V21A1,1,0,0,0,12,20ZM4,12a1,1,0,0,0-1-1H1a1,1,0,0,0,0,2H3A1,1,0,0,0,4,12Zm19-1H21a1,1,0,0,0,0,2h2a1,1,0,0,0,0-2ZM18.018,1.618a1,1,0,0,0-1.367.364l-1,1.731a1,1,0,0,0,.365,1.366.987.987,0,0,0,.5.135,1,1,0,0,0,.866-.5l1-1.731A1,1,0,0,0,18.018,1.618ZM7.987,18.921a1,1,0,0,0-1.366.364l-1,1.731a1,1,0,0,0,.364,1.366.989.989,0,0,0,.5.135,1,1,0,0,0,.867-.5l1-1.731A1,1,0,0,0,7.987,18.921ZM4.715,6.621l-1.731-1a1,1,0,0,0-1,1.731l1.731,1a1,1,0,0,0,1-1.731Zm17.3,10.03-1.731-1a1,1,0,0,0-1,1.731l1.731,1a.987.987,0,0,0,.5.135,1,1,0,0,0,.5-1.866ZM7.349,1.982a1,1,0,0,0-1.731,1l1,1.731a1,1,0,0,0,.866.5.987.987,0,0,0,.5-.135,1,1,0,0,0,.365-1.366Zm10.03,17.3a1,1,0,0,0-1.731,1l1,1.731a1,1,0,0,0,1.731-1Zm2.408-10.8a1,1,0,0,0,.5-.134l1.731-1a1,1,0,0,0-1-1.731l-1.731,1a1,1,0,0,0,.5,1.865ZM3.713,15.648l-1.731,1a1,1,0,0,0,.5,1.866.987.987,0,0,0,.5-.135l1.731-1a1,1,0,0,0-1-1.731Z"/></svg>