<svg id="Layer_1" data-name="Layer 1" xmlns="http://www.w3.org/2000/svg" viewBox="0 0 24 24"><path d="M22.1,1.9C18.664-1.531,9.372-.067,4.652,4.652S-1.531,18.664,1.9,22.1A8.106,8.106,0,0,0,7.667,23.98a17.434,17.434,0,0,0,11.681-4.632C24.066,14.629,25.531,5.336,22.1,1.9ZM16.333,2a6.232,6.232,0,0,1,4.351,1.314C21.7,4.331,22.111,6.3,21.959,8.545l-6.5-6.5C15.754,2.026,16.05,2,16.333,2ZM3.316,20.684C2.3,19.669,1.889,17.7,2.041,15.455l6.5,6.5C6.3,22.11,4.331,21.7,3.316,20.684Zm14.618-2.75a14.685,14.685,0,0,1-6.929,3.657l-8.6-8.6A14.674,14.674,0,0,1,6.066,6.066a14.645,14.645,0,0,1,6.94-3.646l8.586,8.586A14.674,14.674,0,0,1,17.934,17.934Zm-.227-6.227a1,1,0,0,1-1.414,0L15,10.414,13.414,12l1.293,1.293a1,1,0,1,1-1.414,1.414L12,13.414,10.414,15l1.293,1.293a1,1,0,1,1-1.414,1.414l-4-4a1,1,0,0,1,1.414-1.414L9,13.586,10.586,12,9.293,10.707a1,1,0,0,1,1.414-1.414L12,10.586,13.586,9,12.293,7.707a1,1,0,0,1,1.414-1.414l4,4A1,1,0,0,1,17.707,11.707Z"/></svg>