<svg id="Layer_1" data-name="Layer 1" xmlns="http://www.w3.org/2000/svg" viewBox="0 0 24 24"><path d="M19,24H5a5.006,5.006,0,0,1-5-5V5A5.006,5.006,0,0,1,5,0H19a5.006,5.006,0,0,1,5,5V19A5.006,5.006,0,0,1,19,24ZM5,2A3,3,0,0,0,2,5V19a3,3,0,0,0,3,3H19a3,3,0,0,0,3-3V5a3,3,0,0,0-3-3ZM9.342,17.005a2.368,2.368,0,0,1-1.186-.323,2.313,2.313,0,0,1-1.164-2.021V9.339a2.337,2.337,0,0,1,3.5-2.029l5.278,2.635a2.336,2.336,0,0,1,.049,4.084l-5.376,2.687A2.2,2.2,0,0,1,9.342,17.005Zm-.025-8a.314.314,0,0,0-.157.042.327.327,0,0,0-.168.292v5.322a.337.337,0,0,0,.5.293l5.376-2.688a.314.314,0,0,0,.12-.266.325.325,0,0,0-.169-.292L9.545,9.073A.462.462,0,0,0,9.317,9.005Z"/></svg>