<svg id="Layer_1" data-name="Layer 1" xmlns="http://www.w3.org/2000/svg" viewBox="0 0 24 24"><path d="M19.95,5.536,16.464,2.05A6.954,6.954,0,0,0,11.515,0H7A5.006,5.006,0,0,0,2,5V19a5.006,5.006,0,0,0,5,5H17a5.006,5.006,0,0,0,5-5V10.485A6.954,6.954,0,0,0,19.95,5.536ZM18.536,6.95A5.018,5.018,0,0,1,19.317,8H15a1,1,0,0,1-1-1V2.683a5.018,5.018,0,0,1,1.05.781ZM20,19a3,3,0,0,1-3,3H7a3,3,0,0,1-3-3V5A3,3,0,0,1,7,2h4.515c.165,0,.323.032.485.047V7a3,3,0,0,0,3,3h4.953c.015.162.047.32.047.485Zm-3.276-5.689a1,1,0,0,1-.035,1.413L13.1,18.138a3,3,0,0,1-4.226-.017L7.334,16.747a1,1,0,0,1,1.332-1.494l1.585,1.414a1,1,0,0,0,1.456.04l3.6-3.431A1,1,0,0,1,16.724,13.311Z"/></svg>