<svg id="Layer_1" data-name="Layer 1" xmlns="http://www.w3.org/2000/svg" viewBox="0 0 24 24"><path d="M24,12a1,1,0,0,1-2,0A10.011,10.011,0,0,0,12,2a1,1,0,0,1,0-2A12.013,12.013,0,0,1,24,12Zm-8,1a1,1,0,0,0,0-2H13.723A2,2,0,0,0,13,10.277V7a1,1,0,0,0-2,0v3.277A1.994,1.994,0,1,0,13.723,13ZM1.827,6.784a1,1,0,1,0,1,1A1,1,0,0,0,1.827,6.784ZM2,12a1,1,0,1,0-1,1A1,1,0,0,0,2,12ZM12,22a1,1,0,1,0,1,1A1,1,0,0,0,12,22ZM4.221,3.207a1,1,0,1,0,1,1A1,1,0,0,0,4.221,3.207ZM7.779.841a1,1,0,1,0,1,1A1,1,0,0,0,7.779.841ZM1.827,15.216a1,1,0,1,0,1,1A1,1,0,0,0,1.827,15.216Zm2.394,3.577a1,1,0,1,0,1,1A1,1,0,0,0,4.221,18.793Zm3.558,2.366a1,1,0,1,0,1,1A1,1,0,0,0,7.779,21.159Zm14.394-5.943a1,1,0,1,0,1,1A1,1,0,0,0,22.173,15.216Zm-2.394,3.577a1,1,0,1,0,1,1A1,1,0,0,0,19.779,18.793Zm-3.558,2.366a1,1,0,1,0,1,1A1,1,0,0,0,16.221,21.159Z"/></svg>