<svg id="Layer_1" data-name="Layer 1" xmlns="http://www.w3.org/2000/svg" viewBox="0 0 24 24"><path d="M12,16a3,3,0,0,0,1.342-.314l2-1A2.986,2.986,0,0,0,17,12V9.033A2.985,2.985,0,0,0,15.342,6.35l-2-1a3.014,3.014,0,0,0-2.683,0l-2,1A2.985,2.985,0,0,0,7,9.033V12a2.986,2.986,0,0,0,1.658,2.684l2,1A3,3,0,0,0,12,16ZM9,12V9.033a1,1,0,0,1,.051-.3l2.18,1.09a1.72,1.72,0,0,0,1.538,0l2.18-1.09a1,1,0,0,1,.051.3V12a.994.994,0,0,1-.553.895l-2,1a1.009,1.009,0,0,1-.895,0l-2-1A.994.994,0,0,1,9,12ZM19,22H16.291l3.487-3.222a11,11,0,1,0-15.528.028L7.709,22H5a1,1,0,0,0,0,2H19a1,1,0,0,0,0-2ZM5.636,4.636a9,9,0,0,1,12.757,12.7l-3.985,3.681A3.513,3.513,0,0,1,9.571,21L5.636,17.364A9.01,9.01,0,0,1,5.636,4.636Z"/></svg>