<svg id="Outline" xmlns="http://www.w3.org/2000/svg" viewBox="0 0 24 24"><title>96 following</title><path d="M9,12A6,6,0,1,0,3,6,6.006,6.006,0,0,0,9,12ZM9,2A4,4,0,1,1,5,6,4,4,0,0,1,9,2Z"/><path d="M9,14a9.011,9.011,0,0,0-9,9,1,1,0,0,0,2,0,7,7,0,0,1,14,0,1,1,0,0,0,2,0A9.011,9.011,0,0,0,9,14Z"/><path d="M22,7.875a2.107,2.107,0,0,0-2,2.2,2.107,2.107,0,0,0-2-2.2,2.107,2.107,0,0,0-2,2.2c0,1.73,2.256,3.757,3.38,4.659a.992.992,0,0,0,1.24,0c1.124-.9,3.38-2.929,3.38-4.659A2.107,2.107,0,0,0,22,7.875Z"/></svg>