<svg id="Outline" xmlns="http://www.w3.org/2000/svg" viewBox="0 0 24 24"><title>128 resources</title><path d="M7.54,13H2.732L7.865,4.109l3.982,6.9c.051,0,.1-.008.153-.008a5.953,5.953,0,0,1,2.46.534L9.6,3.108a2,2,0,0,0-3.464,0h0L.134,13.5A1,1,0,0,0,1,15H6.35A6.009,6.009,0,0,1,7.54,13Z"/><path d="M23,3H13a1,1,0,0,0-1,1v7a5.976,5.976,0,0,1,2,.35V5h8v8H16.46a6.009,6.009,0,0,1,1.19,2H23a1,1,0,0,0,1-1V4A1,1,0,0,0,23,3Z"/><path d="M12,12a5,5,0,1,1-5,5,5.006,5.006,0,0,1,5-5m0-2a7,7,0,1,0,7,7,7,7,0,0,0-7-7Z"/></svg>