<svg id="Layer_1" data-name="Layer 1" xmlns="http://www.w3.org/2000/svg" viewBox="0 0 24 24"><path d="M16,16a1,1,0,0,1-1,1H13v2a1,1,0,0,1-2,0V17H9a1,1,0,0,1,0-2h2V13a1,1,0,0,1,2,0v2h2A1,1,0,0,1,16,16Zm6-5.515V19a5.006,5.006,0,0,1-5,5H7a5.006,5.006,0,0,1-5-5V5A5.006,5.006,0,0,1,7,0h4.515a6.958,6.958,0,0,1,4.95,2.05l3.484,3.486A6.951,6.951,0,0,1,22,10.485ZM15.051,3.464A5.01,5.01,0,0,0,14,2.684V7a1,1,0,0,0,1,1h4.316a4.983,4.983,0,0,0-.781-1.05ZM20,10.485c0-.165-.032-.323-.047-.485H15a3,3,0,0,1-3-3V2.047C11.838,2.032,11.679,2,11.515,2H7A3,3,0,0,0,4,5V19a3,3,0,0,0,3,3H17a3,3,0,0,0,3-3Z"/></svg>