<svg id="Layer_1" data-name="Layer 1" xmlns="http://www.w3.org/2000/svg" viewBox="0 0 24 24"><path d="M15,12a1,1,0,0,1-1,1H13v4.5A2.5,2.5,0,1,1,10.5,15a2.577,2.577,0,0,1,.5.05V13a2,2,0,0,1,2-2h1A1,1,0,0,1,15,12Zm7-1.515V19a5.006,5.006,0,0,1-5,5H7a5.006,5.006,0,0,1-5-5V5A5.006,5.006,0,0,1,7,0h4.515a6.955,6.955,0,0,1,4.95,2.051l3.484,3.484A6.955,6.955,0,0,1,22,10.485Zm-6.949-7.02A4.989,4.989,0,0,0,14,2.684V7a1,1,0,0,0,1,1h4.316a4.989,4.989,0,0,0-.781-1.051ZM20,10.485c0-.165-.032-.323-.047-.485H15a3,3,0,0,1-3-3V2.047C11.838,2.032,11.68,2,11.515,2H7A3,3,0,0,0,4,5V19a3,3,0,0,0,3,3H17a3,3,0,0,0,3-3Z"/></svg>