<svg id="Layer_1" data-name="Layer 1" xmlns="http://www.w3.org/2000/svg" viewBox="0 0 24 24"><path d="M24,11.5A4.476,4.476,0,0,0,22.294,8,4.481,4.481,0,0,0,19.5,0H4.5A4.481,4.481,0,0,0,1.706,8a4.443,4.443,0,0,0,0,7A4.481,4.481,0,0,0,4.5,23h15a4.481,4.481,0,0,0,2.794-8A4.476,4.476,0,0,0,24,11.5ZM2,4.5A2.5,2.5,0,0,1,4.5,2H5V3A1,1,0,0,0,7,3V2H9V3a1,1,0,0,0,2,0V2h8.5a2.5,2.5,0,0,1,0,5H4.5A2.5,2.5,0,0,1,2,4.5Zm20,14A2.5,2.5,0,0,1,19.5,21H4.5a2.5,2.5,0,0,1,0-5H5v1a1,1,0,0,0,2,0V16H9v1a1,1,0,0,0,2,0V16h8.5A2.5,2.5,0,0,1,22,18.5ZM4.5,14a2.5,2.5,0,0,1,0-5H5v1a1,1,0,0,0,2,0V9H9v1a1,1,0,0,0,2,0V9h8.5a2.5,2.5,0,0,1,0,5Z"/></svg>