<svg id="Layer_1" data-name="Layer 1" xmlns="http://www.w3.org/2000/svg" viewBox="0 0 24 24"><path d="M23.414.587A2.022,2.022,0,0,0,21.473.074a16.461,16.461,0,0,0-6.479,3.983L5.518,13.532A14.58,14.58,0,0,0,1.142,12.01a1,1,0,0,0-.286,1.979,12.632,12.632,0,0,1,5.353,2.387L2.5,20.086l-.793-.793A1,1,0,1,0,.293,20.707l3,3a1,1,0,1,0,1.414-1.414L3.914,21.5l3.709-3.71a12.609,12.609,0,0,1,2.387,5.354A1,1,0,0,0,11,24a.881.881,0,0,0,.144-.011,1,1,0,0,0,.847-1.13,14.515,14.515,0,0,0-1.522-4.376l9.475-9.476a16.52,16.52,0,0,0,4.01-6.574A1.994,1.994,0,0,0,23.414.587ZM18.529,7.592,9.362,16.76a11.15,11.15,0,0,0-.988-1.134,11.36,11.36,0,0,0-1.133-.988l9.167-9.167a14.384,14.384,0,0,1,5.584-3.464A14.453,14.453,0,0,1,18.529,7.592Z"/></svg>