<svg id="Layer_1" data-name="Layer 1" xmlns="http://www.w3.org/2000/svg" viewBox="0 0 24 24"><path d="M23.22,5.743,20.209,1.675A4.005,4.005,0,0,0,16.955,0H7.045A4,4,0,0,0,3.8,1.656L.735,5.753a3.993,3.993,0,0,0,.123,4.784L9.65,22.865A2.985,2.985,0,0,0,12,24h0a3.006,3.006,0,0,0,2.378-1.175L23.1,10.634A4,4,0,0,0,23.22,5.743ZM18.592,2.851,21.61,6.929c.016.022.02.048.036.071H16.754L15.326,2h1.629A2.012,2.012,0,0,1,18.592,2.851ZM12,19.118,9.3,9h5.4ZM9.326,7l1.428-5h2.492l1.428,5ZM5.417,2.837A2.007,2.007,0,0,1,7.045,2H8.674L7.246,7H2.318c.014-.022.018-.049.034-.07ZM2.448,9.325A1.9,1.9,0,0,1,2.263,9H7.232l2.994,11.23ZM13.771,20.24l3-11.24h4.986a2.1,2.1,0,0,1-.243.421Z"/></svg>